#!OML:ASF H:\Terrain\Patient Classification 1\Walking\liu\liu.ASF
:FULLY-SPECIFIED
:DEGREES
1
root 8.62852 16.0393 -32.8288 5.42111 4.36631 1.82226
lowerback -5.13766 -3.01394 -4.29295
upperback -0.695993 -3.859 3.11441
thorax 2.66048 -1.98995 5.34623
lowerneck -22.5511 -2.92377 -11.3664
upperneck 18.839 -3.36541 13.1016
head 10.157 -0.846015 6.11338
rclavicle -2.53699e-014 7.95139e-015
rhumerus -42.4464 5.86817 -84.4059
rradius 24.5728
rwrist -5.38283
rhand -28.7297 -24.4538
rfingers 7.12502
rthumb -2.09067 -54.4233
lclavicle -2.53699e-014 7.95139e-015
lhumerus -28.705 -16.6112 96.0639
lradius 33.3348
lwrist 8.96001
lhand -12.2778 -26.5014
lfingers 7.12502
lthumb 13.7892 3.02161
rfemur -31.1811 1.54278 21.8508
rtibia 33.3096
rfoot -8.4882 -2.367
rtoes -12.9689
lfemur 9.2336 12.4372 -18.746
ltibia 27.4524
lfoot 0.888192 1.64714
ltoes -23.5359
2
root 8.59848 16.0543 -32.6654 5.5246 4.36272 1.64299
lowerback -5.30663 -2.88548 -4.09024
upperback -0.680816 -3.69213 3.07143
thorax 2.73387 -1.90577 5.19279
lowerneck -22.8913 -2.92127 -11.1671
upperneck 19.0527 -3.40702 13.0702
head 10.298 -0.843534 6.07497
rclavicle 3.1408e-014 -2.38542e-014
rhumerus -42.1322 5.89331 -84.5763
rradius 24.7661
rwrist -5.75831
rhand -29.5535 -22.4811
rfingers 7.12502
rthumb -2.88629 -52.4413
lclavicle 3.1408e-014 -2.38542e-014
lhumerus -29.3215 -16.6162 96.3447
lradius 32.1947
lwrist 8.40057
lhand -12.6661 -26.1738
lfingers 7.12502
lthumb 13.415 3.37428
rfemur -30.7641 1.55024 22.248
rtibia 33.4836
rfoot -9.01445 -2.25782
rtoes -13.4101
lfemur 7.6532 12.9493 -18.2578
ltibia 30.8718
lfoot 2.54581 1.71267
ltoes -24.3131
3
root 8.57012 16.0778 -32.5058 5.48736 4.38851 1.13319
lowerback -5.78739 -2.73966 -2.90824
upperback -0.270199 -3.54102 2.47928
thorax 3.29929 -1.82731 3.88801
lowerneck -23.3748 -2.79002 -9.95588
upperneck 18.9572 -3.55541 12.9082
head 10.3506 -0.823884 5.7832
rclavicle 4.91992e-014 -1.82882e-014
rhumerus -41.1034 5.03538 -85.4958
rradius 24.6131
rwrist -5.50772
rhand -29.5355 -22.6434
rfingers 7.12502
rthumb -2.8689 -52.6038
lclavicle 4.91992e-014 -1.82882e-014
lhumerus -29.6058 -17.5777 95.4709
lradius 31.1764
lwrist 7.91745
lhand -13.2471 -26.0271
lfingers 7.12502
lthumb 12.855 3.55705
rfemur -30.0059 1.40536 23.0781
rtibia 33.1274
rfoot -9.10393 -2.05584
rtoes -13.712
lfemur 5.95316 13.4047 -17.4129
ltibia 34.4516
lfoot 3.44717 1.83352
ltoes -24.0669
4
root 8.54863 16.0952 -32.3481 5.33011 4.58015 0.572858
lowerback -5.61213 -2.68027 -2.28562
upperback -0.242285 -3.50526 2.49064
thorax 3.18934 -1.7987 3.55995
lowerneck -23.3025 -2.93811 -10.1084
upperneck 18.7258 -3.74634 13.1175
head 10.2891 -0.901974 5.84829
rclavicle 1.89094e-014 -6.36111e-015
rhumerus -40.9783 5.48383 -85.9775
rradius 25.0651
rwrist -6.02884
rhand -29.2667 -22.3951
rfingers 7.12502
rthumb -2.60931 -52.3589
lclavicle 1.89094e-014 -6.36111e-015
lhumerus -30.2165 -17.5622 95.4283
lradius 30.1344
lwrist 7.43567
lhand -12.4251 -25.2446
lfingers 7.12502
lthumb 13.6473 4.28799
rfemur -29.0503 1.01414 23.9533
rtibia 32.6701
rfoot -9.18507 -1.54514
rtoes -12.5732
lfemur 4.40847 13.2748 -16.6834
ltibia 37.8786
lfoot 4.30785 2.56628
ltoes -22.9014
5
root 8.52934 16.1113 -32.1927 5.16864 4.67204 -0.268534
lowerback -4.99412 -2.62165 -2.15034
upperback -0.560194 -3.45993 3.25666
thorax 2.55119 -1.76738 4.3195
lowerneck -22.9398 -3.07472 -10.9395
upperneck 18.6561 -3.72412 13.3237
head 10.2143 -0.941707 6.06621
rclavicle -2.02015e-014 8.74653e-015
rhumerus -41.526 7.19165 -85.8821
rradius 25.9796
rwrist -7.29454
rhand -29.0534 -21.8657
rfingers 7.12502
rthumb -2.40325 -51.8319
lclavicle -2.02015e-014 8.74653e-015
lhumerus -31.1292 -16.0086 96.3308
lradius 28.9868
lwrist 6.26522
lhand -11.1002 -24.7265
lfingers 7.12502
lthumb 14.924 4.71588
rfemur -27.9496 1.05315 25.0265
rtibia 31.9571
rfoot -9.40601 -1.37996
rtoes -11.5467
lfemur 2.79288 13.1523 -15.6953
ltibia 41.3548
lfoot 5.25385 3.76446
ltoes -20.0132
6
root 8.50716 16.1385 -32.0387 5.13057 4.50701 -1.06822
lowerback -4.5827 -2.48222 -1.9028
upperback -0.825299 -3.2966 3.81327
thorax 2.05144 -1.67528 4.79682
lowerneck -22.6252 -2.92882 -10.9164
upperneck 18.6171 -3.52353 13.1994
head 10.11 -0.871343 6.0397
rclavicle -6.38596e-015 3.4191e-014
rhumerus -41.9097 8.60841 -86.0203
rradius 26.7825
rwrist -8.30545
rhand -29.26 -22.3028
rfingers 7.12502
rthumb -2.60282 -52.2666
lclavicle -6.38596e-015 3.4191e-014
lhumerus -32.0665 -14.6771 96.8424
lradius 28.0288
lwrist 5.07925
lhand -10.1259 -24.5411
lfingers 7.12502
lthumb 15.8625 4.82919
rfemur -26.91 1.37255 26.019
rtibia 31.1565
rfoot -9.56768 -1.31939
rtoes -10.892
lfemur 1.03488 13.5427 -14.6996
ltibia 44.7771
lfoot 6.04199 4.79943
ltoes -17.8935
7
root 8.48547 16.1661 -31.8901 5.09679 4.46783 -1.45551
lowerback -4.27542 -2.36828 -1.60544
upperback -0.983028 -3.15543 3.90141
thorax 1.69182 -1.595 4.74633
lowerneck -22.3534 -2.852 -10.8183
upperneck 18.4993 -3.48357 13.2768
head 10.0131 -0.845169 6.04905
rclavicle 8.01599e-014 -4.05521e-014
rhumerus -42.0626 9.44786 -86.4846
rradius 27.3695
rwrist -9.03366
rhand -29.6521 -22.7838
rfingers 7.12502
rthumb -2.98144 -52.7427
lclavicle 8.01599e-014 -4.05521e-014
lhumerus -32.8791 -14.3093 96.9524
lradius 27.0351
lwrist 4.31455
lhand -9.48522 -24.2193
lfingers 7.12502
lthumb 16.4793 5.10079
rfemur -25.8481 1.34484 26.5898
rtibia 30.3111
rfoot -9.56917 -1.17391
rtoes -10.2378
lfemur -0.776464 13.8932 -14.1709
ltibia 48.061
lfoot 6.58742 5.82001
ltoes -15.5319
8
root 8.47035 16.1826 -31.7454 5.01982 4.63173 -2.02272
lowerback -4.21932 -2.30804 -0.967488
upperback -0.927411 -3.10452 3.96822
thorax 1.68288 -1.56666 4.45906
lowerneck -22.3472 -2.87267 -10.723
upperneck 18.3911 -3.52785 13.2452
head 9.97776 -0.862573 6.00919
rclavicle 1.35422e-014 3.49861e-014
rhumerus -41.7344 9.9534 -86.7993
rradius 27.7156
rwrist -9.4691
rhand -29.8453 -23.0023
rfingers 7.12502
rthumb -3.16808 -52.9585
lclavicle 1.35422e-014 3.49861e-014
lhumerus -33.3096 -13.9616 96.8485
lradius 25.8985
lwrist 3.14341
lhand -9.12859 -24.3176
lfingers 7.12502
lthumb 16.8227 4.97365
rfemur -24.7987 0.971644 27.3811
rtibia 29.4896
rfoot -9.64711 -0.982008
rtoes -10.3874
lfemur -2.55433 13.8601 -13.5604
ltibia 51.1287
lfoot 6.32315 7.1853
ltoes -12.4491
9
root 8.45594 16.1971 -31.5997 4.9649 4.64196 -2.72604
lowerback -4.2858 -2.19461 -0.269391
upperback -0.818731 -2.99089 4.13181
thorax 1.79551 -1.5084 4.23728
lowerneck -22.4263 -2.8747 -10.4613
upperneck 18.364 -3.53496 12.9356
head 9.97159 -0.879365 5.84638
rclavicle 2.77056e-014 1.66979e-014
rhumerus -41.3738 10.6386 -86.9748
rradius 28.1203
rwrist -9.96641
rhand -29.9648 -23.7811
rfingers 7.12502
rthumb -3.28345 -53.7356
lclavicle 2.77056e-014 1.66979e-014
lhumerus -33.7412 -13.3776 96.6728
lradius 25.0987
lwrist 1.65191
lhand -8.30177 -23.8996
lfingers 7.12502
lthumb 17.6185 5.32215
rfemur -23.8792 0.576233 28.3335
rtibia 28.8075
rfoot -9.70659 -0.57805
rtoes -11.1464
lfemur -4.1928 13.9023 -12.8659
ltibia 53.8838
lfoot 5.29988 8.69703
ltoes -9.89382
10
root 8.43784 16.2224 -31.4566 4.95194 4.58606 -3.00168
lowerback -4.13821 -2.07502 -0.0553893
upperback -0.832802 -2.83774 4.18777
thorax 1.67908 -1.42941 4.18994
lowerneck -22.3002 -2.93224 -10.5439
upperneck 18.2194 -3.62353 13.0916
head 9.91527 -0.912911 5.8983
rclavicle -2.11457e-014 2.46493e-014
rhumerus -41.3137 11.458 -87.2192
rradius 28.83
rwrist -10.6052
rhand -29.8422 -24.1378
rfingers 7.12502
rthumb -3.1651 -54.0941
lclavicle -2.11457e-014 2.46493e-014
lhumerus -34.3632 -12.7813 96.512
lradius 24.5049
lwrist 0.241978
lhand -7.08174 -22.8331
lfingers 7.12502
lthumb 18.7922 6.27916
rfemur -23.0549 0.278159 28.7972
rtibia 28.2655
rfoot -9.90961 -0.202378
rtoes -11.3869
lfemur -5.86559 14.0233 -12.6908
ltibia 56.3264
lfoot 4.23716 10.157
ltoes -7.94683
